<svg id="Layer_1" enable-background="new 0 0 510 510" height="512" viewBox="0 0 510 510" width="512" xmlns="http://www.w3.org/2000/svg"><g><path d="m150 185.73v141.618l105 49.219 105-49.219v-141.618l-105-52.5zm90-11.46v86.713l-60 31.875v-88.588zm-41.448 142.704 56.448-29.989 56.448 29.988-56.448 26.461zm131.448-24.116-60-31.875v-86.713l60 30z"/><path d="m495 195v-105h-60v-90h-360v90h-60v105h30v-75h30v270h-30v-75h-30v105h60v90h360v-90h60v-105h-30v75h-30v-270h30v75zm-90 195h-30v30h30v60h-300v-60h30v-30h-30v-270h30v-30h-30v-60h300v60h-30v30h30z"/><path d="m225 420h60v30h-60z"/><path d="m240 60h30v30h-30z"/></g></svg>